<?xml version="1.0" standalone="no"?>
<!DOCTYPE svg PUBLIC "-//W3C//DTD SVG 20010904//EN"
 "http://www.w3.org/TR/2001/REC-SVG-20010904/DTD/svg10.dtd">
<svg version="1.0" xmlns="http://www.w3.org/2000/svg"
 width="1536.000000pt" height="1024.000000pt" viewBox="0 0 1536.000000 1024.000000"
 preserveAspectRatio="xMidYMid meet">

<g transform="translate(0.000000,1024.000000) scale(0.100000,-0.100000)"
fill="#000000" stroke="none">
<path d="M3581 6414 c0 -11 3 -14 6 -6 3 7 2 16 -1 19 -3 4 -6 -2 -5 -13z"/>
<path d="M3451 6204 c0 -11 3 -14 6 -6 3 7 2 16 -1 19 -3 4 -6 -2 -5 -13z"/>
<path d="M3681 6084 c0 -11 3 -14 6 -6 3 7 2 16 -1 19 -3 4 -6 -2 -5 -13z"/>
<path d="M3736 5920 c3 -14 11 -32 16 -40 6 -10 7 -7 2 10 -3 14 -11 32 -16
40 -6 10 -7 7 -2 -10z"/>
<path d="M6244 5825 c-237 -51 -447 -254 -509 -490 -8 -32 -15 -71 -14 -85 0
-14 7 4 14 39 46 209 177 382 356 470 114 56 213 75 359 69 63 -2 102 -1 85 3
-51 11 -227 8 -291 -6z"/>
<path d="M5195 5808 c-2 -7 -3 -314 -2 -683 l2 -670 143 -3 142 -3 0 686 0
685 -140 0 c-104 0 -142 -3 -145 -12z m275 -673 l0 -675 -130 0 -130 0 0 659
c0 363 -3 666 -6 675 -5 14 10 16 130 16 l136 0 0 -675z"/>
<path d="M6578 5813 c7 -3 16 -2 19 1 4 3 -2 6 -13 5 -11 0 -14 -3 -6 -6z"/>
<path d="M7260 5135 l0 -685 135 0 135 0 0 437 0 436 118 -175 c64 -96 156
-231 203 -299 47 -68 125 -182 174 -254 49 -71 93 -133 99 -137 6 -4 62 -8
124 -8 l112 0 0 685 0 685 -130 0 -130 0 0 -430 c0 -236 -3 -430 -7 -430 -5 1
-57 74 -116 163 -60 89 -167 248 -238 352 -72 105 -152 223 -180 263 -27 41
-49 68 -49 61 0 -7 6 -20 14 -28 7 -9 63 -90 124 -181 61 -91 136 -201 167
-245 30 -44 108 -158 173 -254 l117 -174 3 446 2 447 120 0 120 0 0 -675 0
-676 -112 3 -112 3 -51 75 c-28 41 -90 131 -138 200 -47 69 -161 236 -253 373
-92 136 -168 247 -168 247 -1 0 0 -202 2 -450 l3 -450 -126 0 -125 0 0 675 0
674 118 4 117 3 -122 2 -123 2 0 -685z"/>
<path d="M8730 5135 l0 -685 145 0 145 0 0 685 0 685 -145 0 -145 0 0 -685z
m275 0 l0 -675 -132 0 -133 0 0 675 0 675 133 0 132 0 0 -675z"/>
<path d="M9372 5348 l3 -473 2 468 3 467 125 0 124 0 3 -452 c4 -517 5 -526
82 -602 54 -54 117 -77 210 -74 l71 1 -85 7 c-99 7 -145 26 -194 80 -68 75
-70 92 -74 598 l-3 452 -134 0 -135 0 2 -472z"/>
<path d="M10188 5353 c-3 -464 -3 -468 -26 -518 -30 -65 -56 -92 -117 -122
-36 -18 -42 -23 -20 -18 44 9 99 49 123 87 48 78 52 122 52 590 l0 438 130 0
130 0 0 -447 c0 -247 -4 -475 -10 -507 -14 -85 -70 -196 -132 -262 -59 -62
-111 -96 -202 -131 -33 -13 -47 -21 -31 -18 113 21 268 143 325 254 57 115 60
140 60 654 l0 467 -139 0 -140 0 -3 -467z"/>
<path d="M10820 5135 l0 -685 135 0 135 0 -2 433 -3 432 -2 -427 -3 -428 -125
0 -125 0 0 675 0 675 138 0 137 0 93 -168 c178 -320 271 -485 279 -493 6 -6
30 27 58 78 27 49 100 178 164 288 63 110 126 221 140 247 l26 48 147 0 147 0
1 -675 0 -675 -135 0 -135 0 -2 472 c-3 389 -5 467 -16 444 -6 -15 -8 -24 -2
-21 7 4 10 -146 10 -449 l0 -456 145 0 145 0 -2 683 -3 682 -154 0 -153 0
-155 -270 c-86 -148 -169 -296 -185 -327 -16 -32 -31 -58 -33 -58 -5 0 -101
166 -245 425 -12 22 -47 84 -77 138 l-55 97 -144 0 -144 0 0 -685z"/>
<path d="M3780 5805 c0 -5 5 -17 10 -25 5 -8 10 -10 10 -5 0 6 -5 17 -10 25
-5 8 -10 11 -10 5z"/>
<path d="M6683 5776 c115 -51 252 -144 235 -161 -12 -12 -214 -125 -224 -125
-6 0 -19 10 -30 21 -25 28 -132 79 -164 78 -16 0 -3 -7 33 -19 60 -19 137 -65
137 -83 0 -18 47 0 153 59 62 34 106 65 107 74 0 9 -24 34 -52 55 -58 44 -233
135 -257 135 -9 0 19 -16 62 -34z"/>
<path d="M3291 5733 c-10 -26 -10 -27 4 -9 8 11 15 23 15 28 0 15 -7 8 -19
-19z"/>
<path d="M3815 5730 c9 -16 18 -30 21 -30 2 0 -2 14 -11 30 -9 17 -18 30 -21
30 -2 0 2 -13 11 -30z"/>
<path d="M3244 5653 c-15 -26 -66 -89 -113 -139 l-86 -91 95 97 c52 53 105
115 118 138 32 57 21 53 -14 -5z"/>
<path d="M3899 5592 c11 -16 28 -35 38 -43 9 -8 2 5 -17 29 -38 48 -52 57 -21
14z"/>
<path d="M6295 5586 c-72 -23 -119 -53 -173 -110 -58 -62 -96 -133 -113 -216
-15 -70 -7 -262 13 -318 24 -66 80 -151 118 -180 31 -23 30 -21 -12 25 -84 91
-118 191 -118 344 0 154 36 253 125 343 74 75 142 107 249 116 l81 7 -65 1
c-36 0 -83 -5 -105 -12z"/>
<path d="M3970 5505 c13 -14 26 -25 28 -25 3 0 -5 11 -18 25 -13 14 -26 25
-28 25 -3 0 5 -11 18 -25z"/>
<path d="M4060 5425 c19 -19 36 -35 39 -35 3 0 -10 16 -29 35 -19 19 -36 35
-39 35 -3 0 10 -16 29 -35z"/>
<path d="M2995 5394 l-30 -26 33 22 c17 12 32 23 32 26 0 7 -4 5 -35 -22z"/>
<path d="M4155 5355 c11 -9 29 -21 40 -26 l20 -10 -20 16 c-11 9 -29 21 -40
26 l-20 10 20 -16z"/>
<path d="M2903 5339 c-35 -22 -46 -37 -15 -20 22 13 58 40 52 41 -3 0 -20 -10
-37 -21z"/>
<path d="M11080 5346 c0 -10 6 -24 14 -30 8 -6 32 -45 54 -86 21 -41 60 -112
86 -157 25 -46 65 -118 89 -160 94 -168 130 -223 148 -223 4 0 -2 11 -15 25
-13 14 -86 137 -161 273 -182 326 -215 381 -215 358z"/>
<path d="M11825 5287 c-87 -162 -311 -554 -327 -574 -7 -9 -7 -13 0 -13 6 0
23 24 39 53 16 28 96 170 177 315 82 144 147 265 144 267 -2 3 -17 -19 -33
-48z"/>
<path d="M2798 5274 c-38 -20 -36 -28 2 -9 17 9 30 18 30 20 0 7 -1 6 -32 -11z"/>
<path d="M6430 5115 l0 -115 120 0 121 0 -3 -127 -3 -128 -70 -35 c-66 -33
-75 -35 -175 -35 -98 0 -110 2 -173 32 -37 18 -65 29 -63 24 3 -5 31 -21 62
-36 109 -54 278 -44 392 21 l42 25 0 134 0 135 -120 0 -120 0 0 105 0 105 240
0 240 0 0 -298 0 -298 -92 -60 c-102 -67 -168 -97 -255 -118 -32 -8 -48 -15
-37 -15 65 -3 215 64 332 146 l62 45 0 304 0 304 -250 0 -250 0 0 -115z"/>
<path d="M5715 5105 c1 -66 8 -131 14 -145 11 -23 11 -22 5 10 -4 19 -10 85
-14 145 l-8 110 3 -120z"/>
<path d="M2623 5165 c-3 -9 -3 -18 -1 -21 3 -3 8 4 11 16 6 23 -1 27 -10 5z"/>
<path d="M2710 5086 c0 -3 9 -10 20 -16 11 -6 20 -8 20 -6 0 3 -9 10 -20 16
-11 6 -20 8 -20 6z"/>
<path d="M2760 5056 c0 -3 9 -10 20 -16 11 -6 20 -8 20 -6 0 3 -9 10 -20 16
-11 6 -20 8 -20 6z"/>
<path d="M2830 5016 c0 -3 14 -12 30 -21 17 -9 30 -13 30 -11 0 3 -13 12 -30
21 -16 9 -30 13 -30 11z"/>
<path d="M4179 4973 c-13 -16 -12 -17 4 -4 16 13 21 21 13 21 -2 0 -10 -8 -17
-17z"/>
<path d="M2950 4946 c0 -2 8 -10 18 -17 15 -13 16 -12 3 4 -13 16 -21 21 -21
13z"/>
<path d="M5741 4924 c-3 -38 60 -169 120 -249 48 -66 91 -104 165 -152 114
-73 234 -104 393 -101 l96 1 -130 7 c-210 12 -324 59 -456 190 -88 87 -130
152 -170 265 -10 28 -18 45 -18 39z"/>
<path d="M4074 4898 l-19 -23 23 19 c12 11 22 21 22 23 0 8 -8 2 -26 -19z"/>
<path d="M3035 4880 c10 -11 20 -20 23 -20 3 0 -3 9 -13 20 -10 11 -20 20 -23
20 -3 0 3 -9 13 -20z"/>
<path d="M4009 4843 l-34 -38 38 34 c20 19 37 36 37 38 0 8 -8 0 -41 -34z"/>
<path d="M9381 4845 c-1 -31 17 -99 40 -150 40 -89 136 -183 231 -225 96 -42
281 -62 373 -40 17 4 -15 5 -70 2 -180 -8 -317 35 -424 134 -66 61 -115 149
-136 247 -9 40 -14 51 -14 32z"/>
<path d="M3110 4818 c41 -45 50 -53 50 -45 0 2 -21 23 -47 47 l-48 45 45 -47z"/>
<path d="M3929 4763 c-46 -51 -73 -83 -68 -83 3 0 28 27 57 60 59 66 66 81 11
23z"/>
<path d="M3175 4740 c10 -11 20 -20 23 -20 3 0 -3 9 -13 20 -10 11 -20 20 -23
20 -3 0 3 -9 13 -20z"/>
<path d="M3245 4646 c10 -14 19 -26 22 -26 7 0 -17 39 -28 46 -6 3 -3 -5 6
-20z"/>
<path d="M3840 4655 c-7 -9 -8 -15 -2 -15 5 0 12 7 16 15 3 8 4 15 2 15 -2 0
-9 -7 -16 -15z"/>
<path d="M3280 4590 c6 -11 13 -20 16 -20 2 0 0 9 -6 20 -6 11 -13 20 -16 20
-2 0 0 -9 6 -20z"/>
<path d="M3784 4559 c-14 -28 -24 -53 -22 -55 2 -2 16 21 31 51 15 30 25 55
22 55 -3 0 -16 -23 -31 -51z"/>
<path d="M3431 4204 c0 -11 3 -14 6 -6 3 7 2 16 -1 19 -3 4 -6 -2 -5 -13z"/>
<path d="M3611 4044 c0 -11 3 -14 6 -6 3 7 2 16 -1 19 -3 4 -6 -2 -5 -13z"/>
</g>
</svg>
